HIERARCHY
ROOT Hips
{
	OFFSET -14.64140 90.27770 -84.91600
	CHANNELS 6 Xposition Yposition Zposition Zrotation Xrotation Yrotation
	JOINT Spine
	{
		OFFSET 0.00000 13.20850 -1.60436
		CHANNELS 3 Zrotation Xrotation Yrotation
		JOINT Spine1
		{
			OFFSET 0.00000 8.61716 0.00000
			CHANNELS 3 Zrotation Xrotation Yrotation
			JOINT Spine2
			{
				OFFSET 0.00000 8.61717 0.00000
				CHANNELS 3 Zrotation Xrotation Yrotation
				JOINT Spine3
				{
					OFFSET 0.00000 8.61717 0.00000
					CHANNELS 3 Zrotation Xrotation Yrotation
					JOINT Neck
					{
						OFFSET 0.00000 11.07920 1.10792
						CHANNELS 3 Zrotation Xrotation Yrotation
						JOINT Neck1
						{
							OFFSET 0.00000 7.08032 0.00000
							CHANNELS 3 Zrotation Xrotation Yrotation
							JOINT Head
							{
								OFFSET 0.00000 7.08031 0.00000
								CHANNELS 3 Zrotation Xrotation Yrotation
								End site
								{
									OFFSET 0.00000 0.00000 0.00000
								}
							}
						}
					}
					JOINT RightShoulder
					{
						OFFSET -0.01000 7.91373 5.19711
						CHANNELS 3 Zrotation Xrotation Yrotation
						JOINT RightArm
						{
							OFFSET -18.41580 0.00000 0.00000
							CHANNELS 3 Zrotation Xrotation Yrotation
							JOINT RightForeArm
							{
								OFFSET -29.11090 0.00000 0.00000
								CHANNELS 3 Zrotation Xrotation Yrotation
								JOINT RightHand
								{
									OFFSET -24.65040 0.00000 0.00000
									CHANNELS 3 Zrotation Xrotation Yrotation
									JOINT RightHandThumb1
									{
										OFFSET -5.35114 -0.85590 3.97906
										CHANNELS 3 Zrotation Xrotation Yrotation
										JOINT RightHandThumb2
										{
											OFFSET -4.52789 0.00000 0.00000
											CHANNELS 3 Zrotation Xrotation Yrotation
											JOINT RightHandThumb3
											{
												OFFSET -2.46976 0.00000 0.00000
												CHANNELS 3 Zrotation Xrotation Yrotation
												End site
												{
													OFFSET 0.00000 0.00000 0.00000
												}
											}
										}
									}
									JOINT RightHandIndex1
									{
										OFFSET -14.26970 0.00000 2.88139
										CHANNELS 3 Zrotation Xrotation Yrotation
										JOINT RightHandIndex2
										{
											OFFSET -5.48836 0.00000 0.00000
											CHANNELS 3 Zrotation Xrotation Yrotation
											JOINT RightHandIndex3
											{
												OFFSET -3.01859 0.00000 0.00000
												CHANNELS 3 Zrotation Xrotation Yrotation
												End site
												{
													OFFSET 0.00000 0.00000 0.00000
												}
											}
										}
									}
									JOINT RightHandMiddle1
									{
										OFFSET -14.26970 0.00000 -0.09147
										CHANNELS 3 Zrotation Xrotation Yrotation
										JOINT RightHandMiddle2
										{
											OFFSET -6.17441 0.00000 0.00000
											CHANNELS 3 Zrotation Xrotation Yrotation
											JOINT RightHandMiddle3
											{
												OFFSET -3.56743 0.00000 0.00000
												CHANNELS 3 Zrotation Xrotation Yrotation
												End site
												{
													OFFSET 0.00000 0.00000 0.00000
												}
											}
										}
									}
									JOINT RightHandRing1
									{
										OFFSET -12.69180 0.00000 -3.06433
										CHANNELS 3 Zrotation Xrotation Yrotation
										JOINT RightHandRing2
										{
											OFFSET -5.62556 0.00000 0.00000
											CHANNELS 3 Zrotation Xrotation Yrotation
											JOINT RightHandRing3
											{
												OFFSET -3.56744 0.00000 0.00000
												CHANNELS 3 Zrotation Xrotation Yrotation
												End site
												{
													OFFSET 0.00000 0.00000 0.00000
												}
											}
										}
									}
									JOINT RightHandPinky1
									{
										OFFSET -11.11390 0.00000 -6.03719
										CHANNELS 3 Zrotation Xrotation Yrotation
										JOINT RightHandPinky2
										{
											OFFSET -4.52789 0.00000 0.00000
											CHANNELS 3 Zrotation Xrotation Yrotation
											JOINT RightHandPinky3
											{
												OFFSET -2.46976 0.00000 0.00000
												CHANNELS 3 Zrotation Xrotation Yrotation
												End site
												{
													OFFSET 0.00000 0.00000 0.00000
												}
											}
										}
									}
								}
							}
						}
					}
					JOINT LeftShoulder
					{
						OFFSET 0.01000 7.91373 5.19711
						CHANNELS 3 Zrotation Xrotation Yrotation
						JOINT LeftArm
						{
							OFFSET 18.41580 0.00000 0.00000
							CHANNELS 3 Zrotation Xrotation Yrotation
							JOINT LeftForeArm
							{
								OFFSET 29.11090 0.00000 0.00000
								CHANNELS 3 Zrotation Xrotation Yrotation
								JOINT LeftHand
								{
									OFFSET 24.65040 0.00000 0.00000
									CHANNELS 3 Zrotation Xrotation Yrotation
									JOINT LeftHandThumb1
									{
										OFFSET 5.35114 -0.85590 3.97906
										CHANNELS 3 Zrotation Xrotation Yrotation
										JOINT LeftHandThumb2
										{
											OFFSET 4.52789 0.00000 0.00000
											CHANNELS 3 Zrotation Xrotation Yrotation
											JOINT LeftHandThumb3
											{
												OFFSET 2.46977 0.00000 0.00000
												CHANNELS 3 Zrotation Xrotation Yrotation
												End site
												{
													OFFSET 0.00000 0.00000 0.00000
												}
											}
										}
									}
									JOINT LeftHandIndex1
									{
										OFFSET 14.26970 0.00000 2.88139
										CHANNELS 3 Zrotation Xrotation Yrotation
										JOINT LeftHandIndex2
										{
											OFFSET 5.48836 0.00000 0.00000
											CHANNELS 3 Zrotation Xrotation Yrotation
											JOINT LeftHandIndex3
											{
												OFFSET 3.01859 0.00000 0.00000
												CHANNELS 3 Zrotation Xrotation Yrotation
												End site
												{
													OFFSET 0.00000 0.00000 0.00000
												}
											}
										}
									}
									JOINT LeftHandMiddle1
									{
										OFFSET 14.26970 0.00000 -0.09147
										CHANNELS 3 Zrotation Xrotation Yrotation
										JOINT LeftHandMiddle2
										{
											OFFSET 6.17440 0.00000 0.00000
											CHANNELS 3 Zrotation Xrotation Yrotation
											JOINT LeftHandMiddle3
											{
												OFFSET 3.56744 0.00000 0.00000
												CHANNELS 3 Zrotation Xrotation Yrotation
												End site
												{
													OFFSET 0.00000 0.00000 0.00000
												}
											}
										}
									}
									JOINT LeftHandRing1
									{
										OFFSET 12.69180 0.00000 -3.06433
										CHANNELS 3 Zrotation Xrotation Yrotation
										JOINT LeftHandRing2
										{
											OFFSET 5.62556 0.00000 0.00000
											CHANNELS 3 Zrotation Xrotation Yrotation
											JOINT LeftHandRing3
											{
												OFFSET 3.56744 0.00000 0.00000
												CHANNELS 3 Zrotation Xrotation Yrotation
												End site
												{
													OFFSET 0.00000 0.00000 0.00000
												}
											}
										}
									}
									JOINT LeftHandPinky1
									{
										OFFSET 11.11390 0.00000 -6.03719
										CHANNELS 3 Zrotation Xrotation Yrotation
										JOINT LeftHandPinky2
										{
											OFFSET 4.52789 0.00000 0.00000
											CHANNELS 3 Zrotation Xrotation Yrotation
											JOINT LeftHandPinky3
											{
												OFFSET 2.46976 0.00000 0.00000
												CHANNELS 3 Zrotation Xrotation Yrotation
												End site
												{
													OFFSET 0.00000 0.00000 0.00000
												}
											}
										}
									}
								}
							}
						}
					}
					JOINT pCube4
					{
						OFFSET 0.00000 10.91090 1.10792
						CHANNELS 3 Zrotation Xrotation Yrotation
						End site
						{
							OFFSET 0.00000 0.00000 0.00000
						}
					}
				}
			}
		}
	}
	JOINT RightUpLeg
	{
		OFFSET -9.98441 0.00000 0.00000
		CHANNELS 3 Zrotation Xrotation Yrotation
		JOINT RightLeg
		{
			OFFSET 0.00000 -42.11790 0.00000
			CHANNELS 3 Zrotation Xrotation Yrotation
			JOINT RightFoot
			{
				OFFSET 0.00000 -45.00020 -0.00001
				CHANNELS 3 Zrotation Xrotation Yrotation
				JOINT RightForeFoot
				{
					OFFSET 0.00000 -3.74820 0.00000
					CHANNELS 3 Zrotation Xrotation Yrotation
					JOINT RightToeBase
					{
						OFFSET 0.00000 0.06325 14.43120
						CHANNELS 3 Zrotation Xrotation Yrotation
						End site
						{
							OFFSET 0.00000 0.00000 0.00000
						}
					}
				}
			}
		}
	}
	JOINT LeftUpLeg
	{
		OFFSET 9.98441 0.00000 0.00000
		CHANNELS 3 Zrotation Xrotation Yrotation
		JOINT LeftLeg
		{
			OFFSET 0.00000 -42.11800 0.00000
			CHANNELS 3 Zrotation Xrotation Yrotation
			JOINT LeftFoot
			{
				OFFSET 0.00000 -45.00070 0.00000
				CHANNELS 3 Zrotation Xrotation Yrotation
				JOINT LeftForeFoot
				{
					OFFSET 0.00000 -3.74824 0.00000
					CHANNELS 3 Zrotation Xrotation Yrotation
					JOINT LeftToeBase
					{
						OFFSET 0.00000 0.06325 14.43110
						CHANNELS 3 Zrotation Xrotation Yrotation
						End site
						{
							OFFSET 0.00000 0.00000 0.00000
						}
					}
				}
			}
		}
	}
}
MOTION
Frames: 4
Frame Time: 0.050000
0.02130122366773919 -0.011744229731954305 -0.03207121426604492 0.002871153553148416 0.024806050121240264 0.026400846636478577 -3.1213898331461816 -0.716243296232266 -0.6944293914983589 -1.0625940028180274 3.6284942372092917 0.3462134244569441 -1.2129078505020376 -2.215248998823993 -1.4070829266505884 -0.05585196854817531 0.2598333476279284 -0.9097084363034115 -0.5667044830747908 13.255243017834852 1.8101753417492699 -0.12756745436964328 0.96572924991383 2.4107714368125204 -0.6158466505469314 -13.03008994029487 0.27063618019012975 -4.863055620653537 1.7682757250886096 -13.832733622980225 66.70966612728984 11.269303670955269 15.3290228919972 27.112196270643725 -0.944449883383376 83.78257796711358 16.496813402627257 -0.4753508387943087 -3.1312660467084372 4.508443313039281 -0.0777542693953295 -1.5920079108686875 0.0154609232485372 0.02600790994585313 -56.278154841129805 0.03321757916653994 0.04526218367060972 -56.21633193795731 -38.788674608680715 -0.005641020197118097 -0.019656943678898663 -0.0054810826867443905 -0.0058814800199751315 0.04565014237286575 0.0019851684311665853 0.004109193071550404 -0.017034532957958818 -36.723551955251224 -0.0033277983732519427 -0.022115102488016458 -0.048207632354383634 -0.012663856146503444 0.009066959786464901 -0.0382487714156849 0.015313376100648498 0.030134475144296145 -19.720833041423724 0.04704160470051515 -0.008946262814640712 0.017938128684350182 0.004158156545756132 -0.027759657456273224 -0.04470728174900423 0.02501785278089721 -0.009576706631031846 24.0821186983439 -0.033452838775685126 -0.04550780743780693 28.833267420104896 0.0028473761244598274 -0.02617487741001905 28.821928171201453 0.02118626459206868 0.0426826799200619 7.283874837445626 1.5751742775588073 12.78215747820094 -68.00313475907367 5.625429139032969 -17.931488115878 -22.20442745121557 -15.192668733168324 -49.08774081333956 -3.733700082384734 -0.3505118500126852 0.1177192885100482 -0.45533291352576305 0.07121825255073137 -8.105692258763712 0.039141997483759336 -0.01740928135115242 44.52835100836251 0.015051634476354329 -0.02291161186697419 44.54653882067078 12.43740540085023 -0.01969695385494571 -0.021738517574847047 -0.04347644847040939 -0.009351842783660922 0.011013478706363483 -0.02437003684860112 0.01581437318783339 -0.04443709446911406 11.151875021437013 -0.032840602257665476 0.013492479137209726 0.03922918119305775 0.005859819944506865 0.008178584867146892 0.0420461408996536 -0.01491914381817668 0.035333062814841755 4.820692847089325 -0.0013352438047061486 0.021482677073286396 -0.03864218215169963 -0.04723227460403783 -0.012087698879710593 -0.04021913901092025 0.03519084673854383 0.0010743108580107078 -5.566206543763887 -0.0032634029112252505 -0.040908825520949814 -6.687607866935014 0.03612644872893804 0.0304527061669689 -6.760943624816881 0.03908941276330447 -0.01895332518988535 0.0012303378159617233 -0.026880730506070673 -0.008156779329120989 8.036036260514635 3.4891722280036235 -19.17952666532752 0.011212503584029702 10.40336580047286 0.004260603527274375 -5.595089607506272 -15.676935392834224 3.195681045433695 -0.04212640400709313 -0.030605221369064 0.038656355569204444 -0.04530483916606807 4.7297281090605585 -0.043187487045710446 12.42370948566208 -8.231619226817532 6.875070296747015 -0.02502680483727339 46.426354021392854 0.017902062294085606 -4.343438449535966 -14.788005230903845 -3.8288203174424575 0.02717814780533159 -0.03052264222495717 0.008183006761038648 -0.025246040515769005 -10.704974059193946 -0.029613357707589 
-0.032043609168621326 0.03669181559374783 -0.0283067190976332 -0.009711716031945738 -0.043660988075430424 0.028308706074980823 -2.9295343014285904 -0.7413636462919071 -0.7660970434321642 -1.0162496905818508 3.5902042099779963 0.3790978108104968 -1.1934460524273158 -2.171655287272954 -1.8480994026581339 0.1346552245599805 0.26719684738689603 -0.9645558465594749 -0.7313279737134105 13.136279861506585 1.9914643488425308 -0.13858645920374654 0.7156174599311727 3.1332329609984324 -0.7977543615914148 -13.427748708497294 0.2741910454345151 -4.798469609951962 1.6536460217449678 -14.22665173320524 67.02592479496073 9.506100066506146 12.227557033547082 28.644378120913466 -1.501871609392721 85.94586368639763 15.917039801625224 -0.4056774053009665 -2.998478451015228 4.536403601110789 -0.15194436562342917 -1.5831552000276536 -0.014645425856482857 0.026174739429467027 -56.20803444858508 0.049555415965880645 0.014057909323321995 -56.23069267967024 -38.767814461622756 0.04482164245503484 -0.023638189784039473 -0.032414049185735296 0.0038935880199053195 0.005503579746613275 0.02770629004785191 -0.015119094657618536 0.00271715055761834 -36.658339367635236 0.013388391075322302 0.046237018814066874 -0.04560480531611365 -0.008561380100115893 0.001348077422701843 -0.028138394897882633 -0.03538574584744933 -0.03715907737446835 -19.75728140422205 -0.031618685711065166 0.021615581805676746 0.028117794638910853 0.022900456900514725 -0.016278629916791326 -0.0447230370893188 -0.04654594889737054 -0.04244834703387147 24.043646823954 0.007662126949668765 0.0007483623741645609 28.830740830967887 -0.00019073203500332664 0.03934060456776441 28.825607906372817 -0.007541651063961082 0.0320670107092508 7.755240031923915 1.640251873145697 12.74069189412595 -68.47725987419992 2.3645235817140633 -18.753071268702893 -24.104271706187497 -15.509139262833001 -50.36952507318957 -1.7331340868858343 -0.3147896970570109 -0.42199746404841926 -0.4954097783565594 0.01836309376968291 -8.112982541747662 -0.0400682826582476 0.01635536301243742 44.568534318945126 -0.03391122211481748 0.031759457271637634 44.54427469605899 12.467362113118973 0.03388925190237771 -0.033939503154855756 -0.04396003221701104 -0.0495510410688704 0.01918220573449324 0.03294717429042373 -0.02000054764059294 0.024608021152463737 11.100669275242607 0.013555505091477712 -0.025611818630196032 -0.04327253018026589 0.026666580372928763 0.0131989564923677 -0.03275237859800463 0.016622052194359055 0.007058158767247656 4.797527152651091 -0.02826818759935511 -0.03490362269144814 -0.03303371488579314 -0.022605792698085492 -0.007843620480091247 -0.015237881976274915 9.270876111832899e-05 -0.01489930097220966 -5.551360685848039 -0.020179830338630213 -0.04856423579072449 -6.689914419442918 -0.016144153208255255 -0.04520412023970938 -6.709951134303627 -0.010948992446312568 -0.028777119274035187 0.024079980045930306 -0.006412708076679741 -0.031335469273370734 7.998840821144197 3.491956691807474 -19.256600913921414 0.016382097489933734 10.430293332768803 -0.03457701584798721 -5.6152856132638425 -15.690530308837053 3.144407275277554 0.029197858079580058 -0.035702244748455354 -0.020275863323272737 0.021083582189624393 4.665468675464245 -0.026502992040368226 12.447236909452053 -8.218291633720186 6.905476049780105 -0.0421969484540484 46.403978114729625 0.034428546893472745 -4.325182444522427 -14.76775319040693 -3.8136748802314884 -0.006244733562577872 -0.00806766920767047 -0.01881458932893292 0.020160269449747543 -10.710636756444426 0.03507236065384415 
-0.025854482056881678 -0.01223782258071951 0.0007586343951615698 -0.042097777781159904 0.024077267341699907 -0.04230854538982643 -2.7618707013205634 -0.6180803870840205 -0.7875004334551804 -1.0376634045756745 3.575538693255575 0.3668100512003125 -1.100292662685504 -2.1970250525895714 -2.259109793058311 0.26941497490844 0.21309148518476898 -1.022172872135967 -0.8459878744216224 12.865268003603871 2.0772991056975094 -0.22567265807627002 0.552657469525016 3.742844331077747 -0.8748044620110327 -13.860689575468854 0.32447466089045435 -4.631459740958562 1.6388087681252295 -14.710176501548 67.73112662050627 8.501042362500362 9.10086257082683 29.324518941613864 -2.15364932988593 88.00957066936341 15.568517205342689 -0.5024472738419441 -2.971015793018095 4.564844277919851 -0.17185719955119516 -1.5904480312641704 0.02178389898751578 -0.034278485886257946 -56.20191982336704 -0.03258352962302842 0.018187030122861145 -56.22253923312812 -38.73955097955155 0.017668624663881846 0.02091022823111865 -0.023666135665731045 -0.02567497190595324 0.033956820550584965 -0.009280982294233218 -0.022669536428889123 -0.00020292127386147132 -36.7285664432062 -0.0017805232644074662 0.001863610435191232 -0.011899146744427418 0.04109172106271465 -0.017271706225756526 0.019268445929262634 0.0494282839430838 0.04262816484671895 -19.736684524906508 -0.03529868203325438 -0.02782312290823744 -0.009790141477183763 0.022841882205646986 -0.024643241753601042 -0.0333177387213636 0.014613785102574196 0.04504481966489078 24.09996521466962 -0.01470974652115706 0.0010762227215429423 28.87528141666433 -0.0015949496422605907 -0.0216810435446409 28.900272430814766 0.02788464243880767 0.04458443067662188 8.094736453535885 1.6924486083479469 12.805289347909634 -69.40212601980981 0.8967135403676618 -18.28929243750078 -25.471059863668692 -15.243900348535414 -51.85106647319484 -0.25253593920582834 -0.25630900837611537 -0.7401926750207494 -0.5069185673462375 0.02845720741829768 -8.148655598846082 0.01782415828209868 0.011985902639347948 44.544208833771116 0.04313463687129525 -0.040685258392583856 44.536905342204285 12.428916109104879 -0.02990418635159369 -0.04262446317197581 -0.0221243693686408 0.02703434712054818 0.04323557034457992 0.03617014451736927 0.006895472256333257 -0.0271676940418513 11.113885617417159 0.007830267191589616 -0.017065084501374617 0.04928710499030728 -0.039674496856069205 -0.03610616711835544 0.014781045349040636 0.019277986728049066 -0.04713734270875865 4.820315595636229 0.021638758403000512 -0.048891584595973425 -0.024372137962409997 0.04372109650838534 -0.029558957917616507 0.049934525616113515 -0.012243215474974182 -0.033021250012618845 -5.563483737394802 0.044370986254708394 -0.007524056490666275 -6.6728929900724685 0.016356048427198608 0.0020877162372743207 -6.765612258962716 0.010175965505914679 -0.04057216176664564 0.048037288031886394 0.004523263313917899 0.013273234062548496 8.03200944448507 3.4508112953606624 -19.204588872358716 -0.03138244148177128 10.368388757548532 0.04141929687611826 -5.649932013166706 -15.66942495218819 3.1810341248171383 0.005925776925750399 -0.011346333863269331 0.04585980552980349 -0.021296551222992486 4.679154723177508 -0.019153653064618997 12.487395014378226 -8.24566631078585 6.917672351432262 -0.02544485086089027 46.41935986378732 0.01902214428861248 -4.278549251612388 -14.715562525249796 -3.8060177517050224 -0.014165034450005755 -0.028407159504839654 -0.035062710875703854 -0.02320657144609989 -10.789553880220987 0.0024920489779322237 
-0.003839844071151441 0.006508133080960205 0.0430810031858572 -0.006954233952647779 0.012068708097068656 0.0489633402305759 -2.64993402490857 -0.6223594917800637 -0.8319213197404652 -1.0721629073335888 3.575592138891896 0.3691555102753628 -1.1544332006925229 -2.152946149367392 -2.4267184230579577 0.3111560301986806 0.2327059395699006 -1.0220781237184617 -0.8575000838593535 12.708064256956442 2.136624547172137 -0.24090135356818432 0.3295380616404214 4.058537124555146 -0.9548590732008013 -14.184130717228896 0.37273039913582756 -4.578144654461425 1.5921898848052198 -15.064418403643494 68.44159652350136 8.236044853617846 6.2094261318867074 28.626899843123173 -2.6558862768353286 89.2673602067181 15.529601975697682 -0.4215704655337032 -2.873491669400211 4.541367729300746 -0.17421177223852113 -1.6398378916304592 0.014271076328578602 -0.002288886020319994 -56.25081485024766 -0.04870707301331036 -0.024432796171854506 -56.217481467066854 -38.78416495550323 0.01273760260216636 -0.04631090968429831 -0.015154911486535336 0.042755247678296526 0.014513474589138787 0.03700515846782556 0.04937717884116873 0.0217193215629564 -36.742964597099196 -0.04698116203815202 0.015936545709492215 -0.04275862850532957 -0.007185525348049245 0.045313067457017436 -0.014867303025117396 -0.01522763302861903 -0.03849707722893102 -19.722934928438615 0.01939434918725265 -0.010780939605269813 -0.04728323355649493 -0.04715645928205805 -0.04642002846081507 0.014373907542541009 -0.03393430769207724 0.028466968780275333 24.022785560590485 0.04626836008825807 -0.0031905057835944998 28.88331701413008 0.009423239685088717 0.00028600554744761137 28.90239805753271 -0.03281733742618739 0.03483044575364761 8.154805261257708 1.6752473888490909 12.882339612388188 -70.48032282582129 1.239622055597204 -16.737573849563063 -26.784825012127346 -14.237297949281455 -53.466475715956804 0.46911519029860915 -0.04604387145004195 -0.9748976310750184 -0.45228883148191457 0.07119550873206809 -8.149997568779446 0.028687217770193073 0.02882688052038581 44.551000967552056 0.03760508908107928 0.029153018544518162 44.58423779404322 12.491837412573837 -0.005249998385459992 0.04273322979210221 0.01333425150153725 -0.033485630381273626 -0.008821750810628543 0.010488014477141412 -0.010415559181980906 -0.025898438921557354 11.078734470796451 0.021618749643318627 -0.016768452361430073 0.023879174122487214 -0.04927083144373463 0.0007875650704908839 -0.02996309717702952 -0.008068562163546567 0.0017975730214847595 4.7377194894013375 0.008266868282426409 0.02360296026612898 -0.04201568004405865 0.0035060347912121486 -0.014755953931228992 -0.013274923495880062 0.04771912447475773 0.02183966844476285 -5.576461718951685 0.01973340579181523 -0.0161374658410749 -6.704884371461594 0.028418661737809856 -0.02276112216194533 -6.683926637610463 -0.035185419884594824 -0.03949925181200251 0.019028202368223647 0.029385983193188 -0.0011689377213857982 8.064418099038914 3.500479001333569 -19.24179121887173 -0.00033615255084119854 10.426071454667355 0.06050380576674773 -5.61647301736271 -15.639605452583819 3.2280008749416256 0.04206798293856062 0.04192481750656527 -0.020369668588237237 -6.993413084705732e-05 4.659013953597546 0.03581299085571611 12.472486989201405 -8.197947901132194 6.881087933201665 -0.0011320605484856725 46.355199227916145 -0.022050630503202176 -4.307498021923325 -14.753674003907484 -3.839629991252393 0.0005150938074486882 0.003710652604872258 -0.023569666957814102 0.02033597782999914 -10.712481839464537 0.015183446389552577 
